{"title":"Hide Away 2011 DVDRiP XviD.HS","uid":7378320,"size":1239010814,"categoryP":"video","categoryS":"movies","magnet":"?xt=urn:btih:8b49912e5fba96bee4be6b69c6eecaa025e4492b&amp;dn=Hide+Away+2011+DVDRiP+XviD.HS&amp;tr=udp%3A%2F%2Ftracker.openbittorrent.com%3A80&amp;tr=udp%3A%2F%2Fopen.demonii.com%3A1337&amp;tr=udp%3A%2F%2Ftracker.coppersurfer.tk%3A6969&amp;tr=udp%3A%2F%2Fexodus.desync.com%3A6969","seeders":1,"leechers":0,"uploader":"HeroMaster","files":-1,"time":1340428494,"description":"Release Name\n\n------------\n\nHide Away.2012.DVDRiP.XviD.HS\n\nIMDB Info : http://www.imdb.com/title/tt1536374/\n\n---------\n\nHide Away.2011.DVDRiP.XviD.HS\n\n\nA successful businessman attempting to resurrect his life buys and boards a dilapidated sailboat.\n\nDirector: Chris Eyre\n\nWriter: Peter Vanderwall\n\nStars: Josh Lucas, Ayelet Zurer and James Cromwell\n\n---------\n\nAudio And Video Info\n\n---------------------\n\nLanguage-English\n\nSubtitle-NA\n\nSource- Our Own\n\n\nFormat                                   : AVI\n\nFormat/Info                              : Audio Video Interleave\n\nFormat profile                           : OpenDML\n\nFile size                                : 1.15 GiB\n\nDuration                                 : 1h 20mn\n\nOverall bit rate                         : 2 051 Kbps\n\nWriting application                      : Lavf52.103.0\n\n\n\nVideo\n\nID                                       : 1\n\nFormat                                   : MPEG-4 Visual\n\nFormat profile                           : Simple@L1\n\nFormat settings, BVOP                    : No\n\nFormat settings, QPel                    : No\n\nFormat settings, GMC                     : No warppoints\n\nFormat settings, Matrix                  : Default (H.263)\n\nCodec ID                                 : FMP4\n\nDuration                                 : 1h 20mn\n\nBit rate                                 : 1 908 Kbps\n\nWidth                                    : 640 pixels\n\nHeight                                   : 266 pixels\n\nDisplay aspect ratio                     : 2.40:1\n\nFrame rate                               : 23.976 fps\n\nColor space                              : YUV\n\nChroma subsampling                       : 4:2:0\n\nBit depth                                : 8 bits\n\nScan type                                : Progressive\n\nCompression mode                         : Lossy\n\nBits/(Pixel*Frame)                       : 0.467\n\nStream size                              : 1.07 GiB (93%)\n\nWriting library                          : Lavc52.116.0\n\n\n\nAudio\n\nID                                       : 0\n\nFormat                                   : MPEG Audio\n\nFormat version                           : Version 1\n\nFormat profile                           : Layer 3\n\nMode                                     : Joint stereo\n\nMode extension                           : MS Stereo\n\nCodec ID                                 : 55\n\nCodec ID/Hint                            : MP3\n\nDuration                                 : 1h 20mn\n\nBit rate mode                            : Constant\n\nBit rate                                 : 128 Kbps\n\nChannel(s)                               : 2 channels\n\nSampling rate                            : 44.1 KHz\n\nCompression mode                         : Lossy\n\nStream size                              : 73.8 MiB (6%)\n\nAlignment                                : Aligned on interleaves\n\nInterleave, duration                     : 42 ms (1.00 video frame)\n\nWriting library                          : LAME3.98.4\n\n\nPoster:\n\n &lt;a href=&quot;\nhttp://www.postimg.com/74000/photo-73297.jpg&quot; rel=&quot;nofollow&quot; target=&quot;_NEW&quot;&gt;\nhttp://www.postimg.com/74000/photo-73297.jpg&lt;/a&gt;\n\n\nScreenshots:\n\n &lt;a href=&quot;\nhttp://www.postimg.com/74000/photo-73298.jpg&quot; rel=&quot;nofollow&quot; target=&quot;_NEW&quot;&gt;\nhttp://www.postimg.com/74000/photo-73298.jpg&lt;/a&gt;\n\n\nENJOY!","torrent":{"xt":"urn:btih:8b49912e5fba96bee4be6b69c6eecaa025e4492b","amp;dn":"Hide+Away+2011+DVDRiP+XviD.HS","amp;tr":["udp%3A%2F%2Ftracker.openbittorrent.com%3A80","udp%3A%2F%2Fopen.demonii.com%3A1337","udp%3A%2F%2Ftracker.coppersurfer.tk%3A6969","udp%3A%2F%2Fexodus.desync.com%3A6969"],"infoHash":"8b49912e5fba96bee4be6b69c6eecaa025e4492b","infoHashBuffer":{"type":"Buffer","data":[139,73,145,46,95,186,150,190,228,190,107,105,198,238,202,160,37,228,73,43]},"announce":[],"urlList":[]}}